<?xml version="1.0" standalone="no"?>
<!DOCTYPE svg PUBLIC "-//W3C//DTD SVG 20010904//EN"
 "http://www.w3.org/TR/2001/REC-SVG-20010904/DTD/svg10.dtd">
<svg version="1.0" xmlns="http://www.w3.org/2000/svg"
 width="260.000000pt" height="260.000000pt" viewBox="0 0 260.000000 260.000000"
 preserveAspectRatio="xMidYMid meet">
<metadata>
Created by potrace 1.11, written by Peter Selinger 2001-2013
</metadata>
<g transform="translate(0.000000,260.000000) scale(0.100000,-0.100000)"
fill="#000000" stroke="none">
<path d="M1170 2544 c-352 -44 -669 -226 -879 -504 -106 -141 -199 -354 -233
-536 -16 -89 -16 -349 0 -438 21 -111 70 -253 125 -360 173 -339 494 -581 880
-663 113 -24 371 -24 484 0 169 36 327 102 467 196 92 61 233 195 304 291 107
141 200 354 234 536 16 89 16 349 0 438 -96 512 -486 911 -997 1021 -69 15
-318 27 -385 19z m405 -318 c214 -50 358 -181 385 -353 30 -186 -54 -373 -212
-470 l-58 -36 54 -22 c237 -96 350 -274 317 -497 -35 -228 -230 -402 -538
-481 -80 -20 -110 -22 -328 -21 -220 1 -470 16 -483 29 -3 3 3 157 12 342 17
317 17 370 2 849 -9 281 -16 550 -16 598 l0 88 398 -5 c320 -3 410 -7 467 -21z"/>
<path d="M1096 1858 c-3 -62 -8 -182 -12 -267 l-6 -154 144 6 c171 6 222 21
284 83 53 53 78 128 72 218 -5 85 -32 134 -96 172 -65 40 -138 54 -273 54
l-107 0 -6 -112z"/>
<path d="M1074 993 c3 -104 9 -227 12 -274 l7 -87 147 -7 c102 -5 165 -3 206
5 158 33 233 119 234 269 0 82 -15 132 -56 180 -63 73 -179 101 -421 101
l-136 0 7 -187z"/>
</g>
</svg>
